<?xml version="1.0" encoding="utf-8"?>
<!-- Generator: Adobe Illustrator 26.5.0, SVG Export Plug-In . SVG Version: 6.00 Build 0)  -->
<svg version="1.1" id="Layer_1" xmlns="http://www.w3.org/2000/svg" xmlns:xlink="http://www.w3.org/1999/xlink" x="0px" y="0px"
	 viewBox="0 0 1920 1080" style="enable-background:new 0 0 1920 1080;" xml:space="preserve">
<style type="text/css">
	.st0{fill:#606060;}
	.st1{fill:url(#SVGID_1_);}
	.st2{fill:url(#SVGID_00000050657738764554169390000010655104482379223988_);}
	.st3{fill:url(#SVGID_00000179633769525806605290000009181400093152685243_);}
	.st4{fill:url(#SVGID_00000105426424470930439370000004415645365684812214_);}
	.st5{fill:url(#SVGID_00000093893065100214731400000014043233016170968216_);}
	.st6{fill:url(#SVGID_00000144328684296454434370000013661619948862101891_);}
	.st7{fill:url(#SVGID_00000178902450594058888000000004294675924450843784_);}
	.st8{fill:url(#SVGID_00000092448241847072814100000007327829479282926982_);}
	.st9{fill:url(#SVGID_00000047030874336792591420000014997373699595852223_);}
	.st10{fill:#FF0000;}
	.st11{fill:#00FF00;}
	.st12{fill:#0000FF;}
</style>
<rect x="-10.57" y="-9.86" class="st0" width="1930.57" height="1089.86"/>
<linearGradient id="SVGID_1_" gradientUnits="userSpaceOnUse" x1="266.0266" y1="570.874" x2="266.0266" y2="473.207">
	<stop  offset="0" style="stop-color:#808080"/>
	<stop  offset="1" style="stop-color:#FFFFFF"/>
</linearGradient>
<path class="st1" d="M276.94,570.87c-11.29,0-20.92-3.99-28.89-11.96c-7.98-7.98-11.96-17.58-11.96-28.83v-52.49
	c0-1.18,0.41-2.2,1.24-3.07c0.87-0.87,1.9-1.31,3.07-1.31h0.07c1.22,0,2.27,0.44,3.14,1.31c0.87,0.87,1.31,1.9,1.31,3.07v52.49
	c0,8.8,3.12,16.34,9.35,22.62c6.28,6.23,13.84,9.35,22.68,9.35h14.64c1.18,0,2.2,0.46,3.07,1.37c0.87,0.87,1.31,1.9,1.31,3.07
	s-0.44,2.2-1.31,3.07c-0.87,0.87-1.9,1.31-3.07,1.31H276.94z M240.4,474.84c-0.74,0-1.37,0.26-1.9,0.78
	c-0.52,0.57-0.78,1.22-0.78,1.96v52.49c0,10.81,3.81,20.05,11.44,27.72c7.67,7.67,16.93,11.51,27.78,11.51h14.64
	c0.78,0,1.44-0.28,1.96-0.85c0.57-0.57,0.85-1.22,0.85-1.96c0-0.74-0.28-1.39-0.85-1.96c-0.57-0.57-1.22-0.85-1.96-0.85h-14.64
	c-9.28,0-17.22-3.29-23.8-9.87c-6.58-6.58-9.87-14.49-9.87-23.73v-52.49c0-1.83-0.94-2.75-2.81-2.75H240.4z M291.59,556.49
	c1.18,0,2.2-0.44,3.07-1.31c0.87-0.87,1.31-1.92,1.31-3.14c0-1.18-0.44-2.2-1.31-3.07c-0.87-0.87-1.9-1.31-3.07-1.31h-14.64
	c-4.88,0-9.04-1.72-12.49-5.16c-3.44-3.44-5.16-7.58-5.16-12.42v-52.49c0-1.18-0.44-2.2-1.31-3.07c-0.83-0.87-1.85-1.31-3.07-1.31
	h-0.06c-1.22,0-2.25,0.44-3.07,1.31c-0.87,0.87-1.31,1.9-1.31,3.07v52.49c0,7.28,2.59,13.49,7.78,18.63
	c5.14,5.19,11.38,7.78,18.7,7.78H291.59z M254.91,474.84c1.87,0,2.81,0.92,2.81,2.75v52.49c0,5.27,1.87,9.78,5.62,13.53
	c3.75,3.75,8.28,5.62,13.6,5.62h14.64c0.74,0,1.39,0.28,1.96,0.85c0.57,0.57,0.85,1.22,0.85,1.96c0,0.78-0.28,1.44-0.85,1.96
	c-0.52,0.57-1.18,0.85-1.96,0.85h-14.64c-6.84,0-12.7-2.42-17.59-7.26c-4.84-4.84-7.26-10.68-7.26-17.52v-52.49
	c0-0.74,0.26-1.39,0.78-1.96c0.52-0.52,1.18-0.78,1.96-0.78H254.91z"/>
<linearGradient id="SVGID_00000108306682821192494490000012606024348008083864_" gradientUnits="userSpaceOnUse" x1="396.7917" y1="570.874" x2="396.7917" y2="473.207">
	<stop  offset="0" style="stop-color:#808080"/>
	<stop  offset="1" style="stop-color:#FFFFFF"/>
</linearGradient>
<path style="fill:url(#SVGID_00000108306682821192494490000012606024348008083864_);" d="M386.5,569.57
	c-0.87-0.83-1.31-1.85-1.31-3.07v-88.91c0-1.18,0.41-2.2,1.24-3.07c0.87-0.87,1.9-1.31,3.07-1.31c1.26,0,2.33,0.44,3.2,1.31
	c0.87,0.87,1.31,1.9,1.31,3.07v88.91c0,1.22-0.44,2.25-1.31,3.07c-0.87,0.87-1.92,1.31-3.14,1.31
	C388.39,570.87,387.37,570.44,386.5,569.57z M387.61,475.63c-0.52,0.57-0.78,1.22-0.78,1.96v88.91c0,0.74,0.26,1.4,0.78,1.96
	c0.57,0.57,1.22,0.85,1.96,0.85c1.87,0,2.81-0.94,2.81-2.81v-88.91c0-0.74-0.28-1.39-0.85-1.96c-0.57-0.52-1.24-0.78-2.03-0.78
	C388.76,474.84,388.13,475.1,387.61,475.63z M400.88,569.57c-0.87-0.83-1.31-1.85-1.31-3.07v-88.91c0-1.18,0.44-2.2,1.31-3.07
	c0.87-0.87,1.92-1.31,3.14-1.31c1.22,0,2.24,0.44,3.07,1.31c0.87,0.87,1.31,1.9,1.31,3.07v88.91c0,1.22-0.44,2.25-1.31,3.07
	c-0.83,0.87-1.85,1.31-3.07,1.31C402.79,570.87,401.75,570.44,400.88,569.57z M401.2,477.59v88.91c0,1.87,0.94,2.81,2.81,2.81
	c1.87,0,2.81-0.94,2.81-2.81v-88.91c0-1.83-0.94-2.75-2.81-2.75C402.14,474.84,401.2,475.76,401.2,477.59z"/>
<linearGradient id="SVGID_00000059269883548423552590000016534480394543728039_" gradientUnits="userSpaceOnUse" x1="550.6335" y1="570.874" x2="550.6335" y2="473.207">
	<stop  offset="0" style="stop-color:#808080"/>
	<stop  offset="1" style="stop-color:#FFFFFF"/>
</linearGradient>
<path style="fill:url(#SVGID_00000059269883548423552590000016534480394543728039_);" d="M550.63,473.21
	c13.64,0,25.25,4.84,34.84,14.51c0.83,0.83,1.24,1.92,1.24,3.27c-0.09,1.22-0.59,2.25-1.5,3.07c-0.92,0.78-1.94,1.18-3.07,1.18
	c-1.18-0.04-2.16-0.48-2.94-1.31c-7.84-7.93-17.37-11.9-28.57-11.9c-11.03,0-20.46,3.9-28.31,11.7c-7.8,7.84-11.7,17.28-11.7,28.31
	c0,11.03,3.9,20.46,11.7,28.31c7.84,7.8,17.28,11.7,28.31,11.7c11.03,0,20.46-3.9,28.31-11.7c7.8-7.84,11.7-17.28,11.7-28.31
	c0-1.26-0.02-2.2-0.07-2.81h-38.24c-1.22,0-2.25-0.44-3.07-1.31c-0.87-0.83-1.31-1.85-1.31-3.07c0-1.26,0.41-2.31,1.24-3.14
	c0.87-0.87,1.92-1.31,3.14-1.31h45.76l0.13,0.65c0.83,3.49,1.24,7.15,1.24,10.98c0,13.47-4.77,24.97-14.32,34.52
	s-21.05,14.32-34.52,14.32s-24.97-4.77-34.52-14.32s-14.32-21.05-14.32-34.52s4.77-24.97,14.32-34.52S537.17,473.21,550.63,473.21z
	 M550.63,569.31c13.03,0,24.17-4.62,33.41-13.86c9.24-9.24,13.86-20.37,13.86-33.41c0-3.49-0.35-6.82-1.05-10h-44.52
	c-1.87,0-2.81,0.94-2.81,2.81c0,1.87,0.94,2.81,2.81,2.81h39.68l0.07,0.65c0.13,0.78,0.2,2.03,0.2,3.73
	c0,11.46-4.08,21.27-12.22,29.42c-8.15,8.15-17.96,12.22-29.42,12.22c-11.46,0-21.27-4.07-29.42-12.22
	c-8.15-8.15-12.22-17.96-12.22-29.42c0-11.46,4.07-21.27,12.22-29.42c8.15-8.15,17.96-12.23,29.42-12.23
	c11.64,0,21.55,4.14,29.74,12.42c1.13,1.22,2.37,1.24,3.73,0.07c0.61-0.57,0.96-1.22,1.05-1.96c0-0.87-0.28-1.57-0.85-2.09
	c-9.24-9.33-20.46-13.99-33.67-13.99c-13.03,0-24.17,4.6-33.41,13.79c-9.2,9.24-13.79,20.37-13.79,33.41
	c0,13.03,4.6,24.17,13.79,33.41C526.47,564.69,537.6,569.31,550.63,569.31z M550.63,487.59c-9.5,0-17.61,3.38-24.32,10.13
	c-6.76,6.71-10.13,14.82-10.13,24.32c0,9.5,3.38,17.61,10.13,24.32c6.71,6.76,14.82,10.13,24.32,10.13c8.85,0,16.54-2.94,23.08-8.83
	c6.54-5.88,10.26-13.21,11.18-21.96l0.13-0.85h-32.69c-1.22,0-2.27,0.41-3.14,1.24c-0.83,0.87-1.24,1.92-1.24,3.14
	c0,1.22,0.44,2.27,1.31,3.14c0.83,0.87,1.85,1.31,3.07,1.31h21.18c-2.18,4.27-5.32,7.67-9.41,10.2c-4.14,2.53-8.63,3.79-13.47,3.79
	c-7.06,0-13.1-2.51-18.11-7.52c-5.01-5.01-7.52-11.05-7.52-18.11c0-7.06,2.51-13.1,7.52-18.11c5.01-5.01,11.05-7.52,18.11-7.52
	c6.97,0,12.94,2.42,17.91,7.26c0.78,0.78,1.76,1.2,2.94,1.24c1.13,0,2.16-0.39,3.07-1.18c0.96-0.96,1.44-2.03,1.44-3.2
	c0-1.31-0.46-2.37-1.37-3.2C568.04,490.84,560.05,487.59,550.63,487.59z M527.43,545.25c-6.41-6.41-9.61-14.14-9.61-23.21
	c0-9.06,3.2-16.8,9.61-23.21c6.41-6.41,14.14-9.61,23.21-9.61c8.98,0,16.6,3.09,22.88,9.28c0.61,0.52,0.92,1.2,0.92,2.03
	c0,0.74-0.33,1.42-0.98,2.03c-1.35,1.22-2.59,1.2-3.73-0.07c-5.32-5.1-11.68-7.65-19.09-7.65c-7.5,0-13.9,2.66-19.22,7.98
	c-5.32,5.32-7.98,11.72-7.98,19.22c0,7.5,2.66,13.9,7.98,19.22c5.32,5.32,11.72,7.98,19.22,7.98c5.36,0,10.31-1.46,14.84-4.38
	c4.49-2.92,7.84-6.82,10.07-11.7l0.52-1.11h-23.73c-1.87,0-2.81-0.94-2.81-2.81c0-1.87,0.94-2.81,2.81-2.81h30.86
	c-1.05,8.15-4.66,14.93-10.85,20.33c-6.19,5.4-13.42,8.11-21.7,8.11C541.57,554.86,533.83,551.65,527.43,545.25z"/>
<linearGradient id="SVGID_00000150812432691449056220000002535058248600557205_" gradientUnits="userSpaceOnUse" x1="732.3892" y1="570.874" x2="732.3892" y2="473.207">
	<stop  offset="0" style="stop-color:#808080"/>
	<stop  offset="1" style="stop-color:#FFFFFF"/>
</linearGradient>
<path style="fill:url(#SVGID_00000150812432691449056220000002535058248600557205_);" d="M692.87,569.57
	c-0.87-0.83-1.31-1.85-1.31-3.07v-88.91c0-1.18,0.41-2.2,1.24-3.07c0.87-0.87,1.9-1.31,3.07-1.31c1.22,0,2.29,0.44,3.2,1.31
	c0.87,0.87,1.31,1.9,1.31,3.07v88.91c0,1.22-0.44,2.25-1.31,3.07c-0.87,0.87-1.92,1.31-3.14,1.31
	C694.77,570.87,693.74,570.44,692.87,569.57z M693.98,475.63c-0.52,0.57-0.78,1.22-0.78,1.96v88.91c0,1.87,0.92,2.81,2.75,2.81
	c0.78,0,1.46-0.28,2.03-0.85c0.52-0.57,0.78-1.22,0.78-1.96v-88.91c0-0.74-0.28-1.39-0.85-1.96c-0.57-0.52-1.24-0.78-2.03-0.78
	C695.14,474.84,694.51,475.1,693.98,475.63z M707.25,569.57c-0.87-0.83-1.31-1.85-1.31-3.07v-88.91c0-1.18,0.44-2.2,1.31-3.07
	c0.87-0.87,1.92-1.31,3.14-1.31c1.22,0,2.24,0.44,3.07,1.31c0.87,0.87,1.31,1.9,1.31,3.07v88.91c0,1.22-0.44,2.25-1.31,3.07
	c-0.83,0.87-1.85,1.31-3.07,1.31C709.17,570.87,708.12,570.44,707.25,569.57z M707.58,477.59v88.91c0,1.87,0.94,2.81,2.81,2.81
	c1.87,0,2.81-0.94,2.81-2.81v-88.91c0-1.83-0.94-2.75-2.81-2.75C708.52,474.84,707.58,475.76,707.58,477.59z M751.31,569.57
	c-0.87-0.83-1.31-1.85-1.31-3.07v-35.96h-25.63c-1.22,0-2.27-0.44-3.14-1.31c-0.83-0.87-1.24-1.9-1.24-3.07
	c0-1.22,0.41-2.27,1.24-3.14c0.87-0.87,1.92-1.31,3.14-1.31h25.63v-5.62h-25.63c-1.22,0-2.27-0.41-3.14-1.24
	c-0.83-0.87-1.24-1.92-1.24-3.14c0-1.22,0.41-2.27,1.24-3.14c0.87-0.83,1.92-1.24,3.14-1.24h25.63v-29.74c0-1.18,0.41-2.2,1.24-3.07
	c0.87-0.87,1.9-1.31,3.07-1.31c1.22,0,2.29,0.44,3.2,1.31c0.87,0.87,1.31,1.9,1.31,3.07v88.91c0,1.22-0.44,2.25-1.31,3.07
	c-0.87,0.87-1.92,1.31-3.14,1.31C753.17,570.87,752.14,570.44,751.31,569.57z M724.38,523.35c-1.87,0-2.81,0.94-2.81,2.81
	c0,1.83,0.94,2.75,2.81,2.75h27.2v37.59c0,1.87,0.94,2.81,2.81,2.81c1.87,0,2.81-0.94,2.81-2.81v-88.91c0-0.74-0.28-1.39-0.85-1.96
	c-0.57-0.52-1.24-0.78-2.03-0.78c-0.74,0-1.37,0.26-1.9,0.78c-0.57,0.57-0.85,1.22-0.85,1.96v31.31h-27.2
	c-1.87,0-2.81,0.94-2.81,2.81c0,1.87,0.94,2.81,2.81,2.81h27.2v8.83H724.38z M765.7,569.57c-0.87-0.83-1.31-1.85-1.31-3.07v-88.91
	c0-1.18,0.44-2.2,1.31-3.07c0.83-0.87,1.85-1.31,3.07-1.31c1.22,0,2.27,0.44,3.14,1.31c0.87,0.87,1.31,1.9,1.31,3.07v88.91
	c0,1.22-0.44,2.25-1.31,3.07c-0.83,0.87-1.85,1.31-3.07,1.31C767.61,570.87,766.57,570.44,765.7,569.57z M766.81,475.63
	c-0.52,0.57-0.78,1.22-0.78,1.96v88.91c0,1.87,0.94,2.81,2.81,2.81c1.87,0,2.81-0.94,2.81-2.81v-88.91c0-0.74-0.28-1.39-0.85-1.96
	c-0.57-0.52-1.24-0.78-2.03-0.78C767.98,474.84,767.33,475.1,766.81,475.63z"/>
<linearGradient id="SVGID_00000131327563203989778330000003344071061095497350_" gradientUnits="userSpaceOnUse" x1="897.1487" y1="570.874" x2="897.1487" y2="473.207">
	<stop  offset="0" style="stop-color:#808080"/>
	<stop  offset="1" style="stop-color:#FFFFFF"/>
</linearGradient>
<path style="fill:url(#SVGID_00000131327563203989778330000003344071061095497350_);" d="M866.42,482.03
	c-1.22,0-2.25-0.44-3.07-1.31c-0.87-0.87-1.31-1.92-1.31-3.14c0-1.18,0.44-2.2,1.31-3.07c0.87-0.87,1.9-1.31,3.07-1.31h61.39
	c1.22,0,2.27,0.44,3.14,1.31c0.87,0.87,1.31,1.9,1.31,3.07c0,1.22-0.44,2.27-1.31,3.14c-0.87,0.87-1.92,1.31-3.14,1.31H866.42z
	 M901.2,569.57c-0.83-0.83-1.24-1.85-1.24-3.07v-67.4c0-0.74-0.28-1.39-0.85-1.96c-0.52-0.52-1.16-0.78-1.9-0.78h-0.07
	c-0.78,0-1.46,0.26-2.03,0.78c-0.52,0.52-0.78,1.18-0.78,1.96v67.4c0,1.22-0.44,2.25-1.31,3.07c-0.87,0.87-1.9,1.31-3.07,1.31
	c-1.22,0-2.27-0.44-3.14-1.31c-0.87-0.83-1.31-1.85-1.31-3.07v-70.08h-19.09c-1.22,0-2.25-0.44-3.07-1.31
	c-0.87-0.83-1.31-1.85-1.31-3.07c0-1.22,0.44-2.27,1.31-3.14c0.87-0.87,1.9-1.31,3.07-1.31h61.39c1.22,0,2.27,0.44,3.14,1.31
	c0.87,0.87,1.31,1.92,1.31,3.14c0,1.22-0.44,2.25-1.31,3.07c-0.87,0.87-1.92,1.31-3.14,1.31h-19.09v70.08
	c0,1.22-0.42,2.25-1.24,3.07c-0.87,0.87-1.92,1.31-3.14,1.31C903.12,570.87,902.07,570.44,901.2,569.57z M866.42,474.84
	c-0.74,0-1.4,0.26-1.96,0.78c-0.57,0.57-0.85,1.22-0.85,1.96c0,1.87,0.94,2.81,2.81,2.81h61.39c1.87,0,2.81-0.94,2.81-2.81
	c0-0.74-0.28-1.39-0.85-1.96c-0.52-0.52-1.18-0.78-1.96-0.78H866.42z M897.21,494.71c1.18,0,2.2,0.44,3.07,1.31
	c0.83,0.87,1.24,1.9,1.24,3.07v67.4c0,1.87,0.94,2.81,2.81,2.81c1.87,0,2.81-0.94,2.81-2.81v-71.65h20.66
	c1.87,0,2.81-0.94,2.81-2.81c0-0.78-0.28-1.44-0.85-1.96c-0.52-0.57-1.18-0.85-1.96-0.85h-61.39c-0.74,0-1.4,0.28-1.96,0.85
	c-0.57,0.52-0.85,1.18-0.85,1.96c0,1.87,0.94,2.81,2.81,2.81h20.72v71.65c0,1.87,0.94,2.81,2.81,2.81c1.83,0,2.75-0.94,2.75-2.81
	v-67.4c0-1.22,0.44-2.24,1.31-3.07c0.87-0.87,1.92-1.31,3.14-1.31H897.21z"/>
<linearGradient id="SVGID_00000036217376856905615590000000529124215985187246_" gradientUnits="userSpaceOnUse" x1="1075.5703" y1="570.874" x2="1075.5703" y2="473.207">
	<stop  offset="0" style="stop-color:#808080"/>
	<stop  offset="1" style="stop-color:#FFFFFF"/>
</linearGradient>
<path style="fill:url(#SVGID_00000036217376856905615590000000529124215985187246_);" d="M1082.34,473.21
	c1.22,0,2.27,0.42,3.14,1.24c0.83,0.83,1.24,1.85,1.24,3.07v60.54c0,9.06-3.2,16.8-9.61,23.21c-6.41,6.41-14.14,9.61-23.21,9.61
	c-9.07,0-16.8-3.2-23.21-9.61c-6.41-6.41-9.61-14.14-9.61-23.21v-60.54c0-1.18,0.44-2.2,1.31-3.07c0.87-0.83,1.9-1.24,3.07-1.24
	c1.26,0,2.31,0.42,3.14,1.24c0.87,0.83,1.31,1.85,1.31,3.07v60.54c0,6.62,2.33,12.29,7,17c4.71,4.66,10.37,7,17,7
	c6.62,0,12.29-2.33,17-7c4.66-4.71,6.99-10.37,6.99-17v-60.54c0-1.18,0.44-2.2,1.31-3.07
	C1080.07,473.62,1081.12,473.21,1082.34,473.21z M1053.9,563.68c-7.06,0-13.1-2.51-18.11-7.52c-5.01-5.01-7.52-11.05-7.52-18.11
	v-60.54c0-1.79-0.94-2.68-2.81-2.68c-0.74,0-1.4,0.26-1.96,0.78c-0.52,0.52-0.78,1.16-0.78,1.9v60.54c0,8.59,3.05,15.95,9.15,22.1
	c6.1,6.1,13.44,9.15,22.03,9.15c8.63,0,15.99-3.05,22.1-9.15c6.1-6.15,9.15-13.51,9.15-22.1v-60.54c0-1.79-0.94-2.68-2.81-2.68
	c-0.78,0-1.44,0.26-1.96,0.78c-0.57,0.52-0.85,1.16-0.85,1.9v60.54c0,7.06-2.51,13.1-7.52,18.11
	C1067,561.18,1060.96,563.68,1053.9,563.68z M1067.89,473.21c1.26,0,2.31,0.42,3.14,1.24c0.87,0.83,1.31,1.85,1.31,3.07v60.54
	c0,5.06-1.81,9.39-5.43,13.01c-3.57,3.62-7.91,5.43-13.01,5.43c-4.97,0-9.28-1.83-12.94-5.49c-3.66-3.66-5.49-7.98-5.49-12.94
	v-60.54c0-1.18,0.44-2.2,1.31-3.07c0.87-0.83,1.92-1.24,3.14-1.24c1.22,0,2.27,0.42,3.14,1.24c0.83,0.83,1.24,1.85,1.24,3.07v60.54
	c0,2.61,0.96,4.86,2.88,6.73c1.87,1.92,4.12,2.88,6.73,2.88c2.61,0,4.86-0.96,6.73-2.88c1.92-1.87,2.88-4.12,2.88-6.73v-60.54
	c0-1.18,0.44-2.2,1.31-3.07C1065.69,473.62,1066.71,473.21,1067.89,473.21z M1053.9,549.24c-3.05,0-5.67-1.09-7.85-3.27
	c-2.22-2.22-3.33-4.86-3.33-7.91v-60.54c0-1.79-0.94-2.68-2.81-2.68c-0.78,0-1.46,0.26-2.03,0.78c-0.52,0.52-0.78,1.16-0.78,1.9
	v60.54c0,4.58,1.66,8.52,4.97,11.83c3.36,3.31,7.3,4.97,11.83,4.97c4.62,0,8.58-1.63,11.9-4.9c3.27-3.31,4.9-7.28,4.9-11.9v-60.54
	c0-1.79-0.94-2.68-2.81-2.68c-0.74,0-1.4,0.26-1.96,0.78c-0.52,0.52-0.78,1.16-0.78,1.9v60.54c0,3.05-1.11,5.69-3.33,7.91
	C1059.59,548.15,1056.95,549.24,1053.9,549.24z M1125.61,473.21c1.26,0,2.31,0.42,3.14,1.24c0.87,0.83,1.31,1.85,1.31,3.07v60.54
	c0,9.06-3.2,16.8-9.61,23.21c-6.45,6.41-14.19,9.61-23.21,9.61c-6.1,0-11.77-1.61-17-4.84l-0.92-0.52l0.78-0.72
	c1.7-1.66,3.27-3.46,4.71-5.43l0.39-0.59l0.59,0.33c3.62,1.96,7.43,2.94,11.44,2.94c6.62,0,12.27-2.33,16.93-7
	c4.71-4.71,7.06-10.37,7.06-17v-60.54c0-1.18,0.43-2.2,1.31-3.07C1123.41,473.62,1124.44,473.21,1125.61,473.21z M1097.24,563.68
	c-4.05,0-7.91-0.94-11.57-2.81c-1.13,1.53-2.38,2.96-3.73,4.31c4.75,2.75,9.85,4.12,15.3,4.12c8.58,0,15.93-3.05,22.03-9.15
	c6.1-6.15,9.15-13.51,9.15-22.1v-60.54c0-1.79-0.94-2.68-2.81-2.68c-0.74,0-1.4,0.26-1.96,0.78c-0.52,0.52-0.79,1.16-0.79,1.9v60.54
	c0,7.06-2.51,13.1-7.52,18.11C1110.34,561.18,1104.3,563.68,1097.24,563.68z M1111.23,473.21c1.22,0,2.27,0.42,3.14,1.24
	c0.83,0.83,1.24,1.85,1.24,3.07v60.54c0,5.06-1.79,9.39-5.36,13.01c-3.62,3.62-7.95,5.43-13.01,5.43c-2.88,0-5.73-0.74-8.56-2.22
	l-0.65-0.33l0.33-0.72c1-2.18,1.79-4.45,2.35-6.8l0.26-1.11l0.92,0.65c1.7,1.13,3.49,1.7,5.36,1.7c2.57,0,4.82-0.96,6.73-2.88
	c1.92-1.87,2.88-4.12,2.88-6.73v-60.54c0-1.18,0.41-2.2,1.24-3.07C1108.96,473.62,1110.01,473.21,1111.23,473.21z M1097.24,549.24
	c-1.83,0-3.6-0.46-5.29-1.37c-0.48,1.83-1.09,3.62-1.83,5.36c2.35,1.09,4.73,1.63,7.13,1.63c4.62,0,8.56-1.63,11.83-4.9
	c3.31-3.31,4.97-7.28,4.97-11.9v-60.54c0-1.79-0.94-2.68-2.81-2.68c-0.79,0-1.44,0.26-1.96,0.78c-0.57,0.52-0.85,1.16-0.85,1.9
	v60.54c0,3.05-1.11,5.69-3.33,7.91C1102.86,548.15,1100.25,549.24,1097.24,549.24z"/>
<linearGradient id="SVGID_00000162316131319975822780000013433640788678791324_" gradientUnits="userSpaceOnUse" x1="1266.9033" y1="570.874" x2="1266.9033" y2="473.207">
	<stop  offset="0" style="stop-color:#808080"/>
	<stop  offset="1" style="stop-color:#FFFFFF"/>
</linearGradient>
<path style="fill:url(#SVGID_00000162316131319975822780000013433640788678791324_);" d="M1300.21,569.57
	c-0.87-0.83-1.31-1.85-1.31-3.07v-52.43c0-8.85-3.12-16.41-9.35-22.68c-6.28-6.23-13.82-9.35-22.62-9.35
	c-8.85,0-16.41,3.12-22.68,9.35c-6.23,6.28-9.35,13.84-9.35,22.68v52.43c0,1.18-0.44,2.2-1.31,3.07c-0.87,0.87-1.92,1.31-3.14,1.31
	c-1.18,0-2.2-0.44-3.07-1.31c-0.87-0.83-1.31-1.85-1.31-3.07v-52.43c0-11.29,3.99-20.92,11.96-28.89s17.61-11.96,28.9-11.96
	c11.24,0,20.85,3.99,28.83,11.96s11.96,17.61,11.96,28.89v52.43c0,1.18-0.44,2.2-1.31,3.07c-0.87,0.87-1.9,1.31-3.07,1.31
	C1302.13,570.87,1301.08,570.44,1300.21,569.57z M1290.67,490.27c6.58,6.58,9.87,14.51,9.87,23.8v52.43c0,1.87,0.94,2.81,2.81,2.81
	c0.74,0,1.39-0.28,1.96-0.85c0.57-0.57,0.85-1.22,0.85-1.96v-52.43c0-10.85-3.84-20.11-11.51-27.78
	c-7.67-7.63-16.91-11.44-27.72-11.44c-10.85,0-20.11,3.81-27.78,11.44c-7.63,7.67-11.44,16.93-11.44,27.78v52.43
	c0,1.87,0.92,2.81,2.75,2.81c0.78,0,1.46-0.28,2.03-0.85c0.52-0.57,0.79-1.22,0.79-1.96v-52.43c0-9.28,3.29-17.21,9.87-23.8
	c6.58-6.58,14.51-9.87,23.8-9.87C1276.17,480.4,1284.08,483.69,1290.67,490.27z M1292.04,569.57c0.87-0.87,1.31-1.9,1.31-3.07
	v-52.43c0-7.32-2.59-13.55-7.78-18.7c-5.14-5.19-11.35-7.78-18.63-7.78c-7.32,0-13.55,2.59-18.7,7.78
	c-5.19,5.14-7.78,11.37-7.78,18.7v52.43c0,1.22,0.44,2.25,1.31,3.07c0.87,0.87,1.92,1.31,3.14,1.31c1.18,0,2.2-0.44,3.07-1.31
	c0.87-0.87,1.31-1.9,1.31-3.07v-52.43c0-4.88,1.72-9.04,5.17-12.49c3.44-3.44,7.6-5.16,12.49-5.16c4.75,0,8.87,1.74,12.36,5.23
	c3.49,3.49,5.23,7.63,5.23,12.42v7.26h-25.69c-1.22,0-2.27,0.44-3.14,1.31c-0.83,0.87-1.24,1.9-1.24,3.07
	c0,1.18,0.43,2.22,1.31,3.14c0.87,0.87,1.9,1.31,3.07,1.31h25.69v5.56h-25.69c-1.22,0-2.27,0.44-3.14,1.31
	c-0.83,0.87-1.24,1.92-1.24,3.14c0,1.18,0.43,2.2,1.31,3.07c0.87,0.87,1.9,1.31,3.07,1.31h25.69v21.97c0,1.22,0.43,2.25,1.31,3.07
	c0.83,0.87,1.85,1.31,3.07,1.31C1290.12,570.87,1291.17,570.44,1292.04,569.57z M1286.09,537.34v-8.83h-27.26
	c-0.74,0-1.4-0.28-1.96-0.85c-0.57-0.57-0.85-1.22-0.85-1.96c0-0.74,0.28-1.39,0.85-1.96c0.52-0.52,1.18-0.78,1.96-0.78h27.26v-8.89
	c0-5.23-1.9-9.74-5.69-13.53c-3.79-3.79-8.28-5.69-13.47-5.69c-5.32,0-9.85,1.87-13.6,5.62c-3.75,3.75-5.62,8.28-5.62,13.6v52.43
	c0,0.74-0.28,1.4-0.85,1.96c-0.57,0.57-1.22,0.85-1.96,0.85c-1.87,0-2.81-0.94-2.81-2.81v-52.43c0-6.84,2.42-12.7,7.26-17.58
	c4.88-4.84,10.74-7.26,17.59-7.26c6.71,0,12.53,2.46,17.45,7.39c4.88,4.88,7.32,10.7,7.32,17.45v52.43c0,0.74-0.28,1.4-0.85,1.96
	c-0.52,0.57-1.18,0.85-1.96,0.85c-1.87,0-2.81-0.94-2.81-2.81v-23.53h-27.26c-0.74,0-1.4-0.28-1.96-0.85
	c-0.57-0.57-0.85-1.22-0.85-1.96c0-0.78,0.28-1.44,0.85-1.96c0.52-0.57,1.18-0.85,1.96-0.85H1286.09z"/>
<linearGradient id="SVGID_00000132787463283702564840000001170355147208702128_" gradientUnits="userSpaceOnUse" x1="1437.3059" y1="570.874" x2="1437.3059" y2="473.207">
	<stop  offset="0" style="stop-color:#808080"/>
	<stop  offset="1" style="stop-color:#FFFFFF"/>
</linearGradient>
<path style="fill:url(#SVGID_00000132787463283702564840000001170355147208702128_);" d="M1433.3,570.87
	c-2.35,0-4.45-0.68-6.28-2.03c-1.83-1.35-3.07-3.14-3.73-5.36l-25.37-84.59c-0.48-1.35-0.24-2.66,0.72-3.92
	c0.83-1.18,1.96-1.77,3.4-1.77c2.22,0,3.66,1.05,4.31,3.14l24.65,82.37c0.65,2.22,2.22,3.33,4.71,3.33h3.27
	c2.4,0,3.92-1.11,4.58-3.33l24.78-82.37c0.65-2.09,2.05-3.14,4.18-3.14c1.48,0,2.66,0.59,3.53,1.77c0.87,1.18,1.09,2.48,0.65,3.92
	l-25.36,84.59c-0.65,2.22-1.9,4.01-3.73,5.36c-1.83,1.35-3.9,2.03-6.21,2.03H1433.3z M1399.89,475.95
	c-0.61,0.78-0.76,1.59-0.46,2.42l25.43,84.66c1.22,4.18,4.03,6.28,8.43,6.28h8.11c4.4,0,7.21-2.09,8.43-6.28l25.36-84.59
	c0.26-0.92,0.11-1.74-0.46-2.48c-0.57-0.74-1.31-1.11-2.22-1.11c-1.35,0-2.25,0.65-2.68,1.96l-24.71,82.37
	c-0.92,3.01-2.96,4.51-6.14,4.51h-3.27c-3.27,0-5.34-1.5-6.21-4.51l-24.71-82.37c-0.39-1.31-1.31-1.96-2.75-1.96
	C1401.18,474.84,1400.46,475.21,1399.89,475.95z M1439.64,550.94l22.03-72.04c0.44-1.44,0.22-2.75-0.65-3.92
	c-0.92-1.18-2.09-1.77-3.53-1.77c-2.18,0-3.6,1.05-4.25,3.14l-15.89,53.15l-15.95-53.15c-0.61-2.09-2.05-3.14-4.31-3.14
	c-1.44,0-2.57,0.59-3.4,1.77c-0.87,1.18-1.11,2.48-0.72,3.92L1435,551c0.44,1.09,1.2,1.63,2.29,1.63
	C1438.46,552.64,1439.25,552.07,1439.64,550.94z M1417.08,474.84c1.48,0,2.42,0.65,2.81,1.96l15.88,53.15
	c0.22,0.74,0.72,1.11,1.5,1.11c0.87,0,1.39-0.37,1.57-1.11l15.95-53.15c0.39-1.31,1.29-1.96,2.68-1.96c0.92,0,1.66,0.37,2.22,1.11
	c0.57,0.74,0.72,1.57,0.46,2.48l-22.03,71.98c-0.13,0.39-0.41,0.59-0.85,0.59c-0.35,0-0.59-0.17-0.72-0.52l-22.03-72.04
	c-0.26-0.92-0.11-1.74,0.46-2.48C1415.52,475.21,1416.21,474.84,1417.08,474.84z"/>
<linearGradient id="SVGID_00000091704511633934037860000001400873909844033932_" gradientUnits="userSpaceOnUse" x1="1599.624" y1="570.874" x2="1599.624" y2="473.207">
	<stop  offset="0" style="stop-color:#808080"/>
	<stop  offset="1" style="stop-color:#FFFFFF"/>
</linearGradient>
<path style="fill:url(#SVGID_00000091704511633934037860000001400873909844033932_);" d="M1624.3,476.21
	c5.45,2,10.39,4.9,14.84,8.69c0.48,0.39,0.85,0.85,1.11,1.37c0.22,0.52,0.35,1.09,0.39,1.7c0,0.65-0.09,1.24-0.26,1.77
	c-0.22,0.57-0.54,1.07-0.98,1.5l-0.13,0.07c-0.78,0.83-1.74,1.26-2.88,1.31c-1.13,0.04-2.14-0.3-3.01-1.05
	c-3.62-3.09-7.65-5.47-12.09-7.13c-4.45-1.61-9.07-2.42-13.86-2.42c-11.07,0-20.51,3.9-28.31,11.7c-7.8,7.8-11.7,17.24-11.7,28.31
	c0,11.07,3.9,20.51,11.7,28.31c7.8,7.8,17.24,11.7,28.31,11.7c4.79,0,9.41-0.81,13.86-2.42c4.45-1.66,8.48-4.03,12.09-7.13
	c0.87-0.74,1.87-1.09,3.01-1.05c1.13,0.04,2.09,0.48,2.88,1.31l0.13,0.07c0.44,0.44,0.76,0.94,0.98,1.5
	c0.17,0.52,0.26,1.11,0.26,1.76c-0.04,0.61-0.17,1.18-0.39,1.7c-0.26,0.52-0.63,0.98-1.11,1.37c-4.45,3.79-9.39,6.69-14.84,8.69
	c-5.4,2.01-11.03,3.01-16.87,3.01c-13.47,0-24.97-4.77-34.52-14.32c-9.54-9.54-14.32-21.05-14.32-34.52s4.77-24.97,14.32-34.52
	c9.54-9.54,21.05-14.32,34.52-14.32C1613.28,473.21,1618.9,474.21,1624.3,476.21z M1607.44,474.78c-13.03,0-24.17,4.62-33.41,13.86
	c-9.24,9.24-13.86,20.37-13.86,33.41c0,13.03,4.62,24.17,13.86,33.41c9.24,9.24,20.37,13.86,33.41,13.86
	c5.67,0,11.11-0.98,16.34-2.94c5.27-1.92,10.04-4.71,14.32-8.37c0.3-0.26,0.54-0.57,0.72-0.92c0.13-0.3,0.22-0.65,0.26-1.05
	c0-0.39-0.07-0.76-0.2-1.11c-0.13-0.35-0.35-0.65-0.65-0.92l-0.07-0.13c-0.52-0.52-1.13-0.78-1.83-0.78
	c-0.7-0.04-1.33,0.17-1.9,0.65c-3.79,3.23-8,5.69-12.62,7.39c-4.62,1.7-9.41,2.55-14.38,2.55c-11.51,0-21.31-4.07-29.42-12.22
	c-8.15-8.11-12.22-17.91-12.22-29.42c0-11.51,4.07-21.31,12.22-29.42c8.11-8.15,17.91-12.23,29.42-12.23
	c4.97,0,9.76,0.85,14.38,2.55c4.62,1.7,8.83,4.16,12.62,7.39c0.57,0.48,1.2,0.7,1.9,0.65c0.7,0,1.31-0.26,1.83-0.78l0.07-0.13
	c0.3-0.26,0.52-0.57,0.65-0.92c0.13-0.35,0.2-0.72,0.2-1.11c-0.04-0.39-0.13-0.74-0.26-1.05c-0.17-0.35-0.42-0.65-0.72-0.92
	c-4.27-3.66-9.04-6.45-14.32-8.37C1618.55,475.76,1613.1,474.78,1607.44,474.78z M1618.75,489.48c3.62,1.31,6.95,3.16,10,5.56
	c0.52,0.39,0.92,0.85,1.18,1.37c0.26,0.52,0.41,1.11,0.46,1.77c0.04,0.61-0.04,1.2-0.26,1.77c-0.22,0.57-0.55,1.07-0.98,1.5
	c-0.83,0.83-1.79,1.29-2.88,1.37c-1.09,0.09-2.07-0.22-2.94-0.92c-2.27-1.79-4.77-3.14-7.52-4.05c-2.66-0.96-5.45-1.44-8.37-1.44
	c-7.06,0-13.1,2.51-18.11,7.52c-5.01,5.01-7.52,11.05-7.52,18.11c0,7.06,2.5,13.1,7.52,18.11c5.01,5.01,11.05,7.52,18.11,7.52
	c2.92,0,5.71-0.48,8.37-1.44c2.75-0.92,5.25-2.27,7.52-4.05c0.83-0.7,1.79-1,2.88-0.92c1.09,0.04,2.03,0.46,2.81,1.24
	c0.48,0.48,0.85,0.98,1.11,1.5c0.22,0.61,0.3,1.24,0.26,1.9c-0.04,0.65-0.2,1.24-0.46,1.76c-0.26,0.52-0.65,0.98-1.18,1.37
	c-3.05,2.44-6.39,4.29-10,5.56c-3.66,1.26-7.43,1.9-11.31,1.9c-9.5,0-17.61-3.38-24.32-10.13c-6.76-6.71-10.13-14.82-10.13-24.32
	c0-9.5,3.38-17.61,10.13-24.32c6.71-6.75,14.82-10.13,24.32-10.13C1611.31,487.59,1615.08,488.22,1618.75,489.48z M1607.44,489.22
	c-9.07,0-16.8,3.2-23.21,9.61c-6.41,6.41-9.61,14.14-9.61,23.21c0,9.07,3.2,16.8,9.61,23.21c6.41,6.41,14.14,9.61,23.21,9.61
	c3.7,0,7.3-0.59,10.79-1.77c3.44-1.22,6.62-2.98,9.54-5.3c0.3-0.26,0.54-0.54,0.72-0.85c0.17-0.35,0.28-0.72,0.33-1.11
	c0-0.44-0.07-0.83-0.2-1.18c-0.13-0.35-0.37-0.7-0.72-1.05c-0.48-0.48-1.07-0.74-1.77-0.78c-0.7-0.04-1.31,0.15-1.83,0.59
	c-2.4,1.92-5.06,3.36-7.98,4.31c-2.88,1-5.84,1.5-8.89,1.5c-7.5,0-13.9-2.66-19.22-7.98c-5.32-5.32-7.98-11.72-7.98-19.22
	c0-7.5,2.66-13.9,7.98-19.22c5.32-5.32,11.72-7.98,19.22-7.98c3.05,0,6.01,0.5,8.89,1.5c2.92,0.96,5.58,2.4,7.98,4.31
	c0.57,0.44,1.18,0.63,1.83,0.59c0.7-0.04,1.33-0.35,1.9-0.92c0.26-0.3,0.46-0.63,0.59-0.98c0.13-0.35,0.2-0.72,0.2-1.11
	c-0.04-0.39-0.15-0.76-0.33-1.11c-0.17-0.3-0.42-0.59-0.72-0.85c-2.88-2.31-6.06-4.05-9.54-5.23
	C1614.74,489.83,1611.14,489.22,1607.44,489.22z M1586.32,519.23l0.2-0.92c0.26-1.35,0.65-2.66,1.18-3.92
	c0.52-1.26,1.15-2.46,1.9-3.6l0.26-0.39h31.51c1.22,0,2.27,0.44,3.14,1.31c0.87,0.87,1.31,1.92,1.31,3.14
	c0,1.22-0.44,2.25-1.31,3.07c-0.87,0.87-1.92,1.31-3.14,1.31H1586.32z M1621.36,524.85c1.22,0,2.27,0.44,3.14,1.31
	c0.87,0.83,1.31,1.85,1.31,3.07c0,1.22-0.44,2.27-1.31,3.14c-0.87,0.87-1.92,1.31-3.14,1.31h-31.51l-0.26-0.39
	c-0.74-1.13-1.37-2.33-1.9-3.6c-0.52-1.26-0.92-2.57-1.18-3.92l-0.2-0.92H1621.36z M1621.36,517.66c0.79,0,1.46-0.28,2.03-0.85
	c0.52-0.52,0.78-1.18,0.78-1.96s-0.28-1.46-0.85-2.03c-0.52-0.52-1.18-0.78-1.96-0.78h-30.66c-0.61,0.92-1.13,1.9-1.57,2.94
	c-0.35,0.87-0.63,1.77-0.85,2.68H1621.36z M1588.28,526.42c0.22,0.92,0.5,1.81,0.85,2.68c0.44,1.05,0.96,2.03,1.57,2.94h30.66
	c0.79,0,1.46-0.26,2.03-0.78c0.52-0.57,0.78-1.24,0.78-2.03c0-0.78-0.28-1.44-0.85-1.96c-0.52-0.57-1.18-0.85-1.96-0.85H1588.28z"/>
<path class="st10" d="M929.55,695.31c0,0-24.2-9.56-33.75,0c-9.55,9.56-33.75,0-33.75,0v-10.43c0,0,26.49,8.41,33.75,0
	s33.75,0,33.75,0V695.31z"/>
<path class="st11" d="M929.55,713.73c0,0-24.2-9.56-33.75,0s-33.75,0-33.75,0V703.3c0,0,26.49,8.41,33.75,0s33.75,0,33.75,0V713.73z
	"/>
<path class="st12" d="M929.55,732.15c0,0-24.2-9.56-33.75,0c-9.55,9.56-33.75,0-33.75,0v-10.43c0,0,26.49,8.41,33.75,0
	s33.75,0,33.75,0V732.15z"/>
</svg>
